<?xml version="1.0" standalone="no"?>
<!DOCTYPE svg PUBLIC "-//W3C//DTD SVG 20010904//EN"
 "http://www.w3.org/TR/2001/REC-SVG-20010904/DTD/svg10.dtd">
<svg version="1.0" xmlns="http://www.w3.org/2000/svg"
 width="302.000000pt" height="86.000000pt" viewBox="0 0 302.000000 86.000000"
 preserveAspectRatio="xMidYMid meet">
<metadata>
Created by potrace 1.16, written by Peter Selinger 2001-2019
</metadata>
<g transform="translate(0.000000,86.000000) scale(0.100000,-0.100000)"
fill="#000000" stroke="none">
<path d="M577 784 c-33 -10 -66 -32 -103 -68 l-55 -53 -13 32 c-30 70 -98 95
-262 95 l-124 0 0 -286 c0 -209 -3 -283 -11 -278 -7 4 -10 1 -7 -7 5 -13 27
-14 112 -5 41 4 44 12 42 111 l-3 95 46 0 c63 1 119 15 152 39 l27 20 12 -52
c38 -181 242 -276 411 -191 52 26 112 88 133 138 16 37 36 186 26 186 -3 0
-11 21 -18 46 -18 67 -110 157 -182 178 -65 19 -119 19 -183 0z m164 -141 c56
-34 83 -133 55 -207 -27 -69 -57 -91 -128 -91 -56 0 -62 2 -93 37 -40 43 -53
107 -36 171 14 48 26 66 61 90 32 22 104 22 141 0z"/>
<path d="M1087 785 c-76 -26 -117 -84 -117 -163 0 -72 29 -108 123 -158 100
-52 114 -66 100 -97 -21 -46 -109 -40 -183 13 l-28 20 -31 -54 c-17 -29 -31
-59 -31 -65 0 -7 29 -26 65 -42 55 -26 77 -31 145 -31 66 0 89 4 127 24 62 32
102 96 95 153 -10 82 -42 117 -163 178 -86 43 -102 63 -74 91 22 21 70 20 122
-4 43 -19 43 -19 54 1 9 18 19 20 72 18 l62 -3 5 -225 5 -226 65 0 65 0 5 225
5 225 58 1 c50 1 57 -1 52 -15 -69 -176 -17 -344 129 -418 115 -58 294 -15
347 84 14 26 14 25 19 -38 l5 -64 230 0 230 0 5 165 5 164 105 -164 106 -165
73 -9 c71 -8 98 -3 72 14 -12 7 -13 55 -9 277 3 147 4 274 1 281 -5 14 -128
17 -137 4 -3 -5 -6 -77 -7 -160 0 -84 -2 -152 -3 -152 -2 0 -49 72 -106 160
l-102 160 -234 0 -234 0 0 -125 0 -125 -125 0 -125 0 0 -55 0 -55 65 0 c57 0
64 -2 58 -17 -10 -31 -45 -62 -79 -73 -50 -17 -98 2 -134 52 -58 80 -46 184
27 249 33 28 41 31 85 27 38 -4 57 -12 82 -37 l32 -31 43 44 c50 51 49 62 -9
105 -105 76 -277 60 -363 -32 l-29 -31 2 39 c1 22 2 46 1 53 -1 15 -407 18
-413 3 -2 -6 -26 -3 -58 5 -67 17 -104 17 -153 -1z m1423 -280 l0 -165 -95 0
-95 0 0 40 c0 22 5 40 11 40 5 0 7 5 4 10 -4 6 25 10 79 10 l86 0 0 63 0 62
-90 -3 -90 -3 0 49 c0 27 3 52 7 55 3 4 46 7 95 7 l88 0 0 -165z"/>
</g>
</svg>
